<svg xmlns="http://www.w3.org/2000/svg" viewBox="0 0 101.67 101.67"><defs><style>.cls-2{fill:#5199ff}</style></defs><g id="Слой_2" data-name="Слой 2"><g id="Слой_1-2" data-name="Слой 1"><path class="cls-2" d="M50.83 101.67a50.84 50.84 0 1150.84-50.84 50.89 50.89 0 01-50.84 50.84zm0-99.67a48.84 48.84 0 1048.84 48.83A48.89 48.89 0 0050.83 2z" opacity=".7"/><path class="cls-2" d="M35.83 32.87l6 2.65a10.57 10.57 0 1017.56.09l5.29-2.49v10l-1.61 3.45a.73.73 0 00.06.73.87.87 0 00.67.36h3a.6.6 0 00.62-.36.71.71 0 00.06-.73l-1.35-3.42V32.41c0-.42 0-.73-.77-1-.16 0-14.43-6.41-14.43-6.41a.62.62 0 00-.62 0l-14.48 6.47a.89.89 0 00-.46.73.78.78 0 00.46.67zm23.72 8.6a9 9 0 11-18.06 0 9.31 9.31 0 011.71-5.29l7.06 3.17a.94.94 0 00.62 0l7-3.12a8.66 8.66 0 011.67 5.24zM65 46.14l.37-.77.31.77zm-14.38-19.6l12.61 5.61-12.61 5.6L38 32.15zm.21 27.35a18.4 18.4 0 00-18.37 18.36.79.79 0 00.78.78h35.18a.78.78 0 00.78-.78 18.39 18.39 0 00-18.37-18.36zM34.07 71.47a16.8 16.8 0 0133.57 0z"/></g></g></svg>