<svg xmlns="http://www.w3.org/2000/svg" viewBox="0 0 101.67 101.67"><defs><style>.cls-2{fill:#5199ff}</style></defs><g id="Слой_2" data-name="Слой 2"><g id="Слой_1-2" data-name="Слой 1"><path class="cls-2" d="M50.83 101.67a50.84 50.84 0 1150.84-50.84 50.89 50.89 0 01-50.84 50.84zm0-99.67a48.84 48.84 0 1048.84 48.83A48.89 48.89 0 0050.83 2z" opacity=".7"/><path class="cls-2" d="M48.93 63.25v-8h-6.7V30.17h31.1v25.08H57zm-4.7-10h6.7v5.21l5.29-5.21h15.11V32.17h-27.1z"/><path class="cls-2" d="M44.33 76.59l-8.13-8.62h-7.87v-25.1h14.9v2h-12.9v21.1h6.73l5.27 5.58v-5.58h16.5v-11.4h2v13.4h-16.5v8.62zM50.53 40a2.7 2.7 0 010-5.4 2.7 2.7 0 010 5.4zm0-3.4a.75.75 0 00-.5.21.71.71 0 000 1 .66.66 0 00.49.2.76.76 0 00.5-.21.64.64 0 00.2-.49.71.71 0 00-.7-.7zm7.8 3.4a2.7 2.7 0 010-5.4 2.7 2.7 0 010 5.4zm0-3.4a.7.7 0 00-.7.7.7.7 0 00.7.7.62.62 0 00.5-.21.64.64 0 00.2-.49.7.7 0 00-.21-.5.68.68 0 00-.49-.23z"/></g></g></svg>