<svg xmlns="http://www.w3.org/2000/svg" id="Layer_1" x="0" y="0" viewBox="0 0 100.353 100.353" xml:space="preserve"><path d="M93.527 40.596a1.498 1.498 0 00-1.017-.595c-.544-.069-9.314-1.134-18.184.313-1.554-6.307-3.779-10.565-3.877-10.751a1.5 1.5 0 00-1.993-.643c-.199.099-4.567 2.283-9.544 5.905-3.766-6.014-7.95-10.432-8.267-10.763a1.5 1.5 0 00-2.166 0c-.307.32-4.225 4.456-7.888 10.162-5.027-3.674-9.464-5.89-9.665-5.99a1.509 1.509 0 00-1.175-.067 1.505 1.505 0 00-.862.802c-.091.206-2.118 4.805-3.638 10.9-8.726-1.347-17.232-.314-17.761-.246-.011.001-.021.006-.032.008s-.021 0-.032.002c-.04.007-.075.022-.113.031-.05.013-.1.023-.148.041-.051.019-.099.044-.147.067-.04.02-.081.037-.119.06-.049.03-.093.066-.138.101-.033.026-.067.049-.098.077a1.36 1.36 0 00-.12.132c-.022.026-.048.048-.069.076l-.008.014c-.038.053-.068.11-.099.167-.016.03-.036.057-.05.088a1.47 1.47 0 00-.081.234c-.004.015-.011.029-.015.044a1.503 1.503 0 00-.019.599c.031.183.221 1.267.606 2.93 1.377 5.939 5.25 19.256 13.3 25.217 5.697 4.225 12.154 6.493 17.673 6.493 2.481 0 4.772-.459 6.72-1.404 1.58.825 3.281 1.277 5.063 1.277 1.815 0 3.545-.467 5.149-1.322 2.138 1.258 4.734 1.871 7.578 1.871 5.463 0 11.834-2.26 17.604-6.539 10.298-7.63 13.765-27.312 13.907-28.146a1.503 1.503 0 00-.275-1.145zm-25.084-8.273c.74 1.651 1.97 4.711 2.934 8.572-2.827.659-5.566 1.621-7.956 2.998-.794-2.232-1.829-4.416-2.973-6.472a75.13 75.13 0 017.995-5.098zm-37.424-.644a74.908 74.908 0 018.007 5.121c-1.157 2.017-2.221 4.169-3.061 6.377-2.361-1.261-5.025-2.145-7.758-2.753a74.46 74.46 0 012.812-8.745zm-9.127 35.422a16.495 16.495 0 01-1.268-1.056c-.077-.07-.154-.138-.23-.209-.39-.367-.769-.756-1.136-1.163-.071-.079-.14-.16-.21-.24a24.36 24.36 0 01-1.075-1.311l-.021-.026c-.352-.465-.688-.95-1.015-1.444l-.187-.282c-.312-.48-.613-.972-.903-1.472-.055-.095-.108-.19-.162-.286a38.788 38.788 0 01-.828-1.53l-.035-.067a47.107 47.107 0 01-.782-1.618c-.049-.105-.098-.21-.145-.315a53.757 53.757 0 01-.805-1.869 63.554 63.554 0 01-.611-1.549l-.036-.093a65.335 65.335 0 01-.569-1.582l-.107-.308a72.447 72.447 0 01-.487-1.479l-.081-.261a72.892 72.892 0 01-.414-1.365l-.032-.108a70.237 70.237 0 01-.374-1.336l-.071-.263c-.109-.407-.21-.798-.303-1.166l-.053-.214a63.747 63.747 0 01-.259-1.076c-.075-.322-.139-.613-.198-.881l-.019-.088c4.521-.371 17.515-.936 25.531 3.645-.541 1.971-.862 3.958-.862 5.906 0 8.83 2.945 16.396 7.429 20.528-5.315 1.569-12.997-.465-19.682-5.422zm23.553 4.571c-.013-.01-.027-.016-.04-.025-4.806-2.884-8.26-10.593-8.26-19.652 0-1.966.397-4.003 1.035-6.033l.013-.04c2.496-7.904 8.822-15.676 11.37-18.586 1.625 1.855 4.789 5.691 7.517 10.274.049.117.108.231.188.336l.013.014c2.566 4.381 4.698 9.404 4.698 14.035 0 11.515-5.57 20.882-12.417 20.882-1.445 0-2.827-.438-4.117-1.205zm32.662-4.194c-7.108 5.273-15.343 7.214-20.617 5.098 4.517-4.12 7.488-11.712 7.488-20.58 0-1.691-.244-3.41-.661-5.124 7.942-5.018 21.556-4.432 26.208-4.05-1.029 4.753-4.664 18.911-12.418 24.656z"/></svg>